# xmcd CD database file
#
# Track frame offsets:
#	150
#	19587
#	36680
#	56120
#
# Disc length: 974 seconds
#
# Revision: 2
# Processed by: cddbd v1.5.2PL0 Copyright (c) Steve Scherf et al.
# Submitted via: CDex 1.70beta2
#
DISCID=3303cc04
DTITLE=石田燿子 - OPEN YOUR MIND～小さな羽根ひろげて～
DYEAR=2005
DGENRE=Anime
TTITLE0=OPEN YOUR MIND～小さな羽根ひろげて～
TTITLE1=願い
TTITLE2=OPEN YOUR MIND～小さな羽根ひろげて～(Instrumental)
TTITLE3=願い(Instrumental)
EXTD=YEAR: 2005
EXTT0=
EXTT1=
EXTT2=
EXTT3=
PLAYORDER=
